<svg xmlns="http://www.w3.org/2000/svg" width="32" height="32" viewBox="0 0 32 32">
    <g fill="none" fill-rule="evenodd">
        <g>
            <g>
                <g>
                    <g>
                        <g fill="#FFF" fill-opacity=".885">
                            <path d="M16.905 13.11L1.939 23.773C1.11 24.364 0 23.729 0 22.664V1.336C0 .271 1.11-.365 1.939.226l14.966 10.665c.74.527.74 1.69 0 2.218zM19.983 0c.769 0 1.392.623 1.392 1.392v21.216c0 .769-.623 1.392-1.392 1.392-.769 0-1.392-.623-1.392-1.392V1.392c0-.769.623-1.392 1.392-1.392z" transform="translate(-306.000000, -171.000000) translate(306.000000, 148.000000) translate(0.000000, 23.000000) translate(15.873016, 16.000000) scale(-1, 1) translate(-15.873016, -16.000000) translate(4.761905, 4.800000)"/>
                        </g>
                        <path stroke="#FFF" stroke-opacity="0" stroke-width="1.582" d="M0 0H31.746V32H0z" transform="translate(-306.000000, -171.000000) translate(306.000000, 148.000000) translate(0.000000, 23.000000) translate(15.873016, 16.000000) scale(-1, 1) translate(-15.873016, -16.000000)"/>
                    </g>
                </g>
            </g>
        </g>
    </g>
</svg>
