<svg xmlns="http://www.w3.org/2000/svg" width="79" height="79" viewBox="0 0 79 79">
    <g fill="none" fill-opacity=".885" fill-rule="evenodd">
        <g fill="#FFF">
            <g>
                <g>
                    <path d="M39.5 79C61.315 79 79 61.315 79 39.5S61.315 0 39.5 0 0 17.685 0 39.5 17.685 79 39.5 79zm-5.334-53.022l20.476 12.118c1.212.717 1.613 2.28.895 3.493-.218.369-.526.677-.895.895L34.166 54.602c-1.212.718-2.776.316-3.493-.895-.233-.394-.356-.842-.356-1.3V28.173c0-1.408 1.142-2.55 2.55-2.55.457 0 .906.123 1.299.356z" transform="translate(-366.000000, -148.000000) translate(306.000000, 148.000000) translate(60.000000, 0.000000)"/>
                </g>
            </g>
        </g>
    </g>
</svg>
